<svg width="143" height="101" viewBox="0 0 143 101" fill="none" xmlns="http://www.w3.org/2000/svg">
<g filter="url(#filter0_bd_1529_752)">
<mask id="path-1-inside-1_1529_752" fill="white">
<path d="M95.816 66.5058C90.1915 66.5058 84.7973 64.2504 80.8202 60.2356C76.843 56.2209 74.6087 50.7757 74.6087 45.098C74.6087 39.4202 76.843 33.9751 80.8202 29.9603C84.7973 25.9456 90.1915 23.6901 95.816 23.6901C101.441 23.6901 106.835 25.9456 110.812 29.9603C114.789 33.9751 117.023 39.4202 117.023 45.098C117.023 50.7757 114.789 56.2209 110.812 60.2356C106.835 64.2504 101.441 66.5058 95.816 66.5058ZM95.816 2.28223C96.9409 2.28223 98.0198 2.73332 98.8152 3.53627C99.6106 4.33922 100.057 5.42826 100.057 6.5638V15.1269C100.057 16.2625 99.6106 17.3515 98.8152 18.1545C98.0198 18.9574 96.9409 19.4085 95.816 19.4085C94.6911 19.4085 93.6123 18.9574 92.8168 18.1545C92.0214 17.3515 91.5746 16.2625 91.5746 15.1269V6.5638C91.5746 5.42826 92.0214 4.33922 92.8168 3.53627C93.6123 2.73332 94.6911 2.28223 95.816 2.28223ZM95.816 70.7874C96.9409 70.7874 98.0198 71.2385 98.8152 72.0415C99.6106 72.8444 100.057 73.9334 100.057 75.069V83.6321C100.057 84.7677 99.6106 85.8567 98.8152 86.6597C98.0198 87.4626 96.9409 87.9137 95.816 87.9137C94.6911 87.9137 93.6123 87.4626 92.8168 86.6597C92.0214 85.8567 91.5746 84.7677 91.5746 83.6321V75.069C91.5746 73.9334 92.0214 72.8444 92.8168 72.0415C93.6123 71.2385 94.6911 70.7874 95.816 70.7874ZM57.6428 40.8164H66.1258C67.2507 40.8164 68.3295 41.2675 69.1249 42.0704C69.9204 42.8734 70.3672 43.9624 70.3672 45.098C70.3672 46.2335 69.9204 47.3226 69.1249 48.1255C68.3295 48.9285 67.2507 49.3795 66.1258 49.3795H57.6428C56.5179 49.3795 55.4391 48.9285 54.6437 48.1255C53.8482 47.3226 53.4014 46.2335 53.4014 45.098C53.4014 43.9624 53.8482 42.8734 54.6437 42.0704C55.4391 41.2675 56.5179 40.8164 57.6428 40.8164ZM125.506 40.8164H133.989C135.114 40.8164 136.193 41.2675 136.988 42.0704C137.784 42.8734 138.231 43.9624 138.231 45.098C138.231 46.2335 137.784 47.3226 136.988 48.1255C136.193 48.9285 135.114 49.3795 133.989 49.3795H125.506C124.381 49.3795 123.303 48.9285 122.507 48.1255C121.712 47.3226 121.265 46.2335 121.265 45.098C121.265 43.9624 121.712 42.8734 122.507 42.0704C123.303 41.2675 124.381 40.8164 125.506 40.8164ZM125.807 14.823C126.603 15.6259 127.049 16.7147 127.049 17.85C127.049 18.9853 126.603 20.0742 125.807 20.8771L119.81 26.9312C119.419 27.3402 118.951 27.6664 118.433 27.8908C117.916 28.1151 117.359 28.2333 116.796 28.2382C116.233 28.2431 115.674 28.1348 115.153 27.9195C114.632 27.7042 114.158 27.3863 113.76 26.9843C113.362 26.5823 113.047 26.1043 112.834 25.5781C112.62 25.0519 112.513 24.4881 112.518 23.9196C112.523 23.3511 112.64 22.7893 112.862 22.2669C113.084 21.7445 113.407 21.2721 113.813 20.8771L119.81 14.823C120.605 14.0203 121.684 13.5694 122.809 13.5694C123.933 13.5694 125.012 14.0203 125.807 14.823ZM77.8195 63.2647C78.6146 64.0676 79.0613 65.1564 79.0613 66.2918C79.0613 67.4271 78.6146 68.5159 77.8195 69.3188L71.8221 75.373C71.4308 75.7819 70.9628 76.1081 70.4453 76.3325C69.9278 76.5569 69.3712 76.675 68.8081 76.6799C68.2449 76.6849 67.6864 76.5765 67.1651 76.3613C66.6439 76.146 66.1703 75.8281 65.772 75.426C65.3738 75.024 65.0589 74.546 64.8456 74.0198C64.6323 73.4936 64.525 72.9298 64.5299 72.3613C64.5348 71.7928 64.6518 71.231 64.8741 70.7086C65.0964 70.1862 65.4195 69.7138 65.8246 69.3188L71.8221 63.2647C72.6174 62.462 73.6961 62.0111 74.8208 62.0111C75.9455 62.0111 77.0241 62.462 77.8195 63.2647ZM71.8221 14.823L77.8195 20.8771C78.5921 21.6846 79.0196 22.7662 79.01 23.8888C79.0003 25.0114 78.5542 26.0853 77.7678 26.8791C76.9814 27.6729 75.9176 28.1232 74.8055 28.133C73.6934 28.1427 72.622 27.7112 71.8221 26.9312L65.8289 20.8771C65.0562 20.0696 64.6287 18.9881 64.6384 17.8654C64.6481 16.7428 65.0941 15.669 65.8805 14.8751C66.6669 14.0813 67.7307 13.631 68.8428 13.6212C69.9549 13.6115 71.0263 14.043 71.8263 14.823H71.8221ZM119.81 63.2647L125.807 69.3188C126.58 70.1264 127.008 71.2079 126.998 72.3305C126.988 73.4531 126.542 74.527 125.756 75.3208C124.969 76.1147 123.906 76.5649 122.793 76.5747C121.681 76.5845 120.61 76.1529 119.81 75.373L113.813 69.3188C113.407 68.9239 113.084 68.4514 112.862 67.9291C112.64 67.4067 112.523 66.8449 112.518 66.2764C112.513 65.7078 112.62 65.1441 112.834 64.6179C113.047 64.0917 113.362 63.6136 113.76 63.2116C114.158 62.8096 114.632 62.4917 115.153 62.2764C115.674 62.0611 116.233 61.9528 116.796 61.9577C117.359 61.9627 117.916 62.0808 118.433 62.3052C118.951 62.5296 119.419 62.8558 119.81 63.2647Z"/>
</mask>
<path d="M95.816 66.5058C90.1915 66.5058 84.7973 64.2504 80.8202 60.2356C76.843 56.2209 74.6087 50.7757 74.6087 45.098C74.6087 39.4202 76.843 33.9751 80.8202 29.9603C84.7973 25.9456 90.1915 23.6901 95.816 23.6901C101.441 23.6901 106.835 25.9456 110.812 29.9603C114.789 33.9751 117.023 39.4202 117.023 45.098C117.023 50.7757 114.789 56.2209 110.812 60.2356C106.835 64.2504 101.441 66.5058 95.816 66.5058ZM95.816 2.28223C96.9409 2.28223 98.0198 2.73332 98.8152 3.53627C99.6106 4.33922 100.057 5.42826 100.057 6.5638V15.1269C100.057 16.2625 99.6106 17.3515 98.8152 18.1545C98.0198 18.9574 96.9409 19.4085 95.816 19.4085C94.6911 19.4085 93.6123 18.9574 92.8168 18.1545C92.0214 17.3515 91.5746 16.2625 91.5746 15.1269V6.5638C91.5746 5.42826 92.0214 4.33922 92.8168 3.53627C93.6123 2.73332 94.6911 2.28223 95.816 2.28223ZM95.816 70.7874C96.9409 70.7874 98.0198 71.2385 98.8152 72.0415C99.6106 72.8444 100.057 73.9334 100.057 75.069V83.6321C100.057 84.7677 99.6106 85.8567 98.8152 86.6597C98.0198 87.4626 96.9409 87.9137 95.816 87.9137C94.6911 87.9137 93.6123 87.4626 92.8168 86.6597C92.0214 85.8567 91.5746 84.7677 91.5746 83.6321V75.069C91.5746 73.9334 92.0214 72.8444 92.8168 72.0415C93.6123 71.2385 94.6911 70.7874 95.816 70.7874ZM57.6428 40.8164H66.1258C67.2507 40.8164 68.3295 41.2675 69.1249 42.0704C69.9204 42.8734 70.3672 43.9624 70.3672 45.098C70.3672 46.2335 69.9204 47.3226 69.1249 48.1255C68.3295 48.9285 67.2507 49.3795 66.1258 49.3795H57.6428C56.5179 49.3795 55.4391 48.9285 54.6437 48.1255C53.8482 47.3226 53.4014 46.2335 53.4014 45.098C53.4014 43.9624 53.8482 42.8734 54.6437 42.0704C55.4391 41.2675 56.5179 40.8164 57.6428 40.8164ZM125.506 40.8164H133.989C135.114 40.8164 136.193 41.2675 136.988 42.0704C137.784 42.8734 138.231 43.9624 138.231 45.098C138.231 46.2335 137.784 47.3226 136.988 48.1255C136.193 48.9285 135.114 49.3795 133.989 49.3795H125.506C124.381 49.3795 123.303 48.9285 122.507 48.1255C121.712 47.3226 121.265 46.2335 121.265 45.098C121.265 43.9624 121.712 42.8734 122.507 42.0704C123.303 41.2675 124.381 40.8164 125.506 40.8164ZM125.807 14.823C126.603 15.6259 127.049 16.7147 127.049 17.85C127.049 18.9853 126.603 20.0742 125.807 20.8771L119.81 26.9312C119.419 27.3402 118.951 27.6664 118.433 27.8908C117.916 28.1151 117.359 28.2333 116.796 28.2382C116.233 28.2431 115.674 28.1348 115.153 27.9195C114.632 27.7042 114.158 27.3863 113.76 26.9843C113.362 26.5823 113.047 26.1043 112.834 25.5781C112.62 25.0519 112.513 24.4881 112.518 23.9196C112.523 23.3511 112.64 22.7893 112.862 22.2669C113.084 21.7445 113.407 21.2721 113.813 20.8771L119.81 14.823C120.605 14.0203 121.684 13.5694 122.809 13.5694C123.933 13.5694 125.012 14.0203 125.807 14.823ZM77.8195 63.2647C78.6146 64.0676 79.0613 65.1564 79.0613 66.2918C79.0613 67.4271 78.6146 68.5159 77.8195 69.3188L71.8221 75.373C71.4308 75.7819 70.9628 76.1081 70.4453 76.3325C69.9278 76.5569 69.3712 76.675 68.8081 76.6799C68.2449 76.6849 67.6864 76.5765 67.1651 76.3613C66.6439 76.146 66.1703 75.8281 65.772 75.426C65.3738 75.024 65.0589 74.546 64.8456 74.0198C64.6323 73.4936 64.525 72.9298 64.5299 72.3613C64.5348 71.7928 64.6518 71.231 64.8741 70.7086C65.0964 70.1862 65.4195 69.7138 65.8246 69.3188L71.8221 63.2647C72.6174 62.462 73.6961 62.0111 74.8208 62.0111C75.9455 62.0111 77.0241 62.462 77.8195 63.2647ZM71.8221 14.823L77.8195 20.8771C78.5921 21.6846 79.0196 22.7662 79.01 23.8888C79.0003 25.0114 78.5542 26.0853 77.7678 26.8791C76.9814 27.6729 75.9176 28.1232 74.8055 28.133C73.6934 28.1427 72.622 27.7112 71.8221 26.9312L65.8289 20.8771C65.0562 20.0696 64.6287 18.9881 64.6384 17.8654C64.6481 16.7428 65.0941 15.669 65.8805 14.8751C66.6669 14.0813 67.7307 13.631 68.8428 13.6212C69.9549 13.6115 71.0263 14.043 71.8263 14.823H71.8221ZM119.81 63.2647L125.807 69.3188C126.58 70.1264 127.008 71.2079 126.998 72.3305C126.988 73.4531 126.542 74.527 125.756 75.3208C124.969 76.1147 123.906 76.5649 122.793 76.5747C121.681 76.5845 120.61 76.1529 119.81 75.373L113.813 69.3188C113.407 68.9239 113.084 68.4514 112.862 67.9291C112.64 67.4067 112.523 66.8449 112.518 66.2764C112.513 65.7078 112.62 65.1441 112.834 64.6179C113.047 64.0917 113.362 63.6136 113.76 63.2116C114.158 62.8096 114.632 62.4917 115.153 62.2764C115.674 62.0611 116.233 61.9528 116.796 61.9577C117.359 61.9627 117.916 62.0808 118.433 62.3052C118.951 62.5296 119.419 62.8558 119.81 63.2647Z" fill="url(#paint0_linear_1529_752)" shape-rendering="crispEdges"/>
<path d="M95.816 66.5058C90.1915 66.5058 84.7973 64.2504 80.8202 60.2356C76.843 56.2209 74.6087 50.7757 74.6087 45.098C74.6087 39.4202 76.843 33.9751 80.8202 29.9603C84.7973 25.9456 90.1915 23.6901 95.816 23.6901C101.441 23.6901 106.835 25.9456 110.812 29.9603C114.789 33.9751 117.023 39.4202 117.023 45.098C117.023 50.7757 114.789 56.2209 110.812 60.2356C106.835 64.2504 101.441 66.5058 95.816 66.5058ZM95.816 2.28223C96.9409 2.28223 98.0198 2.73332 98.8152 3.53627C99.6106 4.33922 100.057 5.42826 100.057 6.5638V15.1269C100.057 16.2625 99.6106 17.3515 98.8152 18.1545C98.0198 18.9574 96.9409 19.4085 95.816 19.4085C94.6911 19.4085 93.6123 18.9574 92.8168 18.1545C92.0214 17.3515 91.5746 16.2625 91.5746 15.1269V6.5638C91.5746 5.42826 92.0214 4.33922 92.8168 3.53627C93.6123 2.73332 94.6911 2.28223 95.816 2.28223ZM95.816 70.7874C96.9409 70.7874 98.0198 71.2385 98.8152 72.0415C99.6106 72.8444 100.057 73.9334 100.057 75.069V83.6321C100.057 84.7677 99.6106 85.8567 98.8152 86.6597C98.0198 87.4626 96.9409 87.9137 95.816 87.9137C94.6911 87.9137 93.6123 87.4626 92.8168 86.6597C92.0214 85.8567 91.5746 84.7677 91.5746 83.6321V75.069C91.5746 73.9334 92.0214 72.8444 92.8168 72.0415C93.6123 71.2385 94.6911 70.7874 95.816 70.7874ZM57.6428 40.8164H66.1258C67.2507 40.8164 68.3295 41.2675 69.1249 42.0704C69.9204 42.8734 70.3672 43.9624 70.3672 45.098C70.3672 46.2335 69.9204 47.3226 69.1249 48.1255C68.3295 48.9285 67.2507 49.3795 66.1258 49.3795H57.6428C56.5179 49.3795 55.4391 48.9285 54.6437 48.1255C53.8482 47.3226 53.4014 46.2335 53.4014 45.098C53.4014 43.9624 53.8482 42.8734 54.6437 42.0704C55.4391 41.2675 56.5179 40.8164 57.6428 40.8164ZM125.506 40.8164H133.989C135.114 40.8164 136.193 41.2675 136.988 42.0704C137.784 42.8734 138.231 43.9624 138.231 45.098C138.231 46.2335 137.784 47.3226 136.988 48.1255C136.193 48.9285 135.114 49.3795 133.989 49.3795H125.506C124.381 49.3795 123.303 48.9285 122.507 48.1255C121.712 47.3226 121.265 46.2335 121.265 45.098C121.265 43.9624 121.712 42.8734 122.507 42.0704C123.303 41.2675 124.381 40.8164 125.506 40.8164ZM125.807 14.823C126.603 15.6259 127.049 16.7147 127.049 17.85C127.049 18.9853 126.603 20.0742 125.807 20.8771L119.81 26.9312C119.419 27.3402 118.951 27.6664 118.433 27.8908C117.916 28.1151 117.359 28.2333 116.796 28.2382C116.233 28.2431 115.674 28.1348 115.153 27.9195C114.632 27.7042 114.158 27.3863 113.76 26.9843C113.362 26.5823 113.047 26.1043 112.834 25.5781C112.62 25.0519 112.513 24.4881 112.518 23.9196C112.523 23.3511 112.64 22.7893 112.862 22.2669C113.084 21.7445 113.407 21.2721 113.813 20.8771L119.81 14.823C120.605 14.0203 121.684 13.5694 122.809 13.5694C123.933 13.5694 125.012 14.0203 125.807 14.823ZM77.8195 63.2647C78.6146 64.0676 79.0613 65.1564 79.0613 66.2918C79.0613 67.4271 78.6146 68.5159 77.8195 69.3188L71.8221 75.373C71.4308 75.7819 70.9628 76.1081 70.4453 76.3325C69.9278 76.5569 69.3712 76.675 68.8081 76.6799C68.2449 76.6849 67.6864 76.5765 67.1651 76.3613C66.6439 76.146 66.1703 75.8281 65.772 75.426C65.3738 75.024 65.0589 74.546 64.8456 74.0198C64.6323 73.4936 64.525 72.9298 64.5299 72.3613C64.5348 71.7928 64.6518 71.231 64.8741 70.7086C65.0964 70.1862 65.4195 69.7138 65.8246 69.3188L71.8221 63.2647C72.6174 62.462 73.6961 62.0111 74.8208 62.0111C75.9455 62.0111 77.0241 62.462 77.8195 63.2647ZM71.8221 14.823L77.8195 20.8771C78.5921 21.6846 79.0196 22.7662 79.01 23.8888C79.0003 25.0114 78.5542 26.0853 77.7678 26.8791C76.9814 27.6729 75.9176 28.1232 74.8055 28.133C73.6934 28.1427 72.622 27.7112 71.8221 26.9312L65.8289 20.8771C65.0562 20.0696 64.6287 18.9881 64.6384 17.8654C64.6481 16.7428 65.0941 15.669 65.8805 14.8751C66.6669 14.0813 67.7307 13.631 68.8428 13.6212C69.9549 13.6115 71.0263 14.043 71.8263 14.823H71.8221ZM119.81 63.2647L125.807 69.3188C126.58 70.1264 127.008 71.2079 126.998 72.3305C126.988 73.4531 126.542 74.527 125.756 75.3208C124.969 76.1147 123.906 76.5649 122.793 76.5747C121.681 76.5845 120.61 76.1529 119.81 75.373L113.813 69.3188C113.407 68.9239 113.084 68.4514 112.862 67.9291C112.64 67.4067 112.523 66.8449 112.518 66.2764C112.513 65.7078 112.62 65.1441 112.834 64.6179C113.047 64.0917 113.362 63.6136 113.76 63.2116C114.158 62.8096 114.632 62.4917 115.153 62.2764C115.674 62.0611 116.233 61.9528 116.796 61.9577C117.359 61.9627 117.916 62.0808 118.433 62.3052C118.951 62.5296 119.419 62.8558 119.81 63.2647Z" stroke="url(#paint1_linear_1529_752)" stroke-width="2" shape-rendering="crispEdges" mask="url(#path-1-inside-1_1529_752)"/>
</g>
<g filter="url(#filter1_bd_1529_752)">
<path d="M85.3459 59.1126C84.5529 51.9496 81.3554 45.2692 76.2776 40.1666C71.1999 35.0641 64.5432 31.8422 57.399 31.0292C50.2548 30.2162 43.047 31.8603 36.9573 35.692C30.8676 39.5237 26.2574 45.3157 23.8825 52.1182C18.4407 52.5647 13.382 55.1038 9.76546 59.204C6.14894 63.3043 4.25493 68.6478 4.47989 74.1161C4.70484 79.5844 7.03133 84.7535 10.9724 88.5413C14.9134 92.3292 20.1634 94.4423 25.6235 94.4381H85.5362C90.2097 94.4381 94.6917 92.5772 97.9964 89.2648C101.301 85.9524 103.158 81.4598 103.158 76.7754C103.158 72.0909 101.301 67.5983 97.9964 64.2859C94.6917 60.9735 90.2097 59.1126 85.5362 59.1126H85.3459Z" fill="url(#paint2_linear_1529_752)" shape-rendering="crispEdges"/>
<path d="M84.8489 59.1677L84.8982 59.6126H85.3459H85.5362C90.0767 59.6126 94.4314 61.4206 97.6424 64.6391C100.853 67.8576 102.658 72.2232 102.658 76.7754C102.658 81.3276 100.853 85.6931 97.6424 88.9117C94.4314 92.1302 90.0767 93.9381 85.5362 93.9381H25.6235H25.6232C20.2925 93.9422 15.1668 91.8792 11.3188 88.1809C7.47089 84.4824 5.19913 79.4352 4.97946 74.0955C4.7598 68.7559 6.60928 63.5383 10.1404 59.5348C13.6716 55.5313 18.6106 53.0524 23.9234 52.6165L24.2475 52.5899L24.3546 52.283C26.6922 45.5872 31.2299 39.8865 37.2236 36.1152C43.2172 32.3439 50.3112 30.7258 57.3425 31.526C64.3738 32.3261 70.9254 35.4971 75.9232 40.5193C80.921 45.5415 84.0683 52.117 84.8489 59.1677Z" stroke="url(#paint3_linear_1529_752)" shape-rendering="crispEdges"/>
</g>
<defs>
<filter id="filter0_bd_1529_752" x="28.4014" y="-22.7178" width="134.829" height="135.632" filterUnits="userSpaceOnUse" color-interpolation-filters="sRGB">
<feFlood flood-opacity="0" result="BackgroundImageFix"/>
<feGaussianBlur in="BackgroundImageFix" stdDeviation="12.5"/>
<feComposite in2="SourceAlpha" operator="in" result="effect1_backgroundBlur_1529_752"/>
<feColorMatrix in="SourceAlpha" type="matrix" values="0 0 0 0 0 0 0 0 0 0 0 0 0 0 0 0 0 0 127 0" result="hardAlpha"/>
<feOffset dy="2"/>
<feGaussianBlur stdDeviation="2"/>
<feComposite in2="hardAlpha" operator="out"/>
<feColorMatrix type="matrix" values="0 0 0 0 0 0 0 0 0 0 0 0 0 0 0 0 0 0 0.25 0"/>
<feBlend mode="normal" in2="effect1_backgroundBlur_1529_752" result="effect2_dropShadow_1529_752"/>
<feBlend mode="normal" in="SourceGraphic" in2="effect2_dropShadow_1529_752" result="shape"/>
</filter>
<filter id="filter1_bd_1529_752" x="-20.5381" y="5.82617" width="148.695" height="113.612" filterUnits="userSpaceOnUse" color-interpolation-filters="sRGB">
<feFlood flood-opacity="0" result="BackgroundImageFix"/>
<feGaussianBlur in="BackgroundImageFix" stdDeviation="12.5"/>
<feComposite in2="SourceAlpha" operator="in" result="effect1_backgroundBlur_1529_752"/>
<feColorMatrix in="SourceAlpha" type="matrix" values="0 0 0 0 0 0 0 0 0 0 0 0 0 0 0 0 0 0 127 0" result="hardAlpha"/>
<feOffset dy="2"/>
<feGaussianBlur stdDeviation="2"/>
<feComposite in2="hardAlpha" operator="out"/>
<feColorMatrix type="matrix" values="0 0 0 0 0 0 0 0 0 0 0 0 0 0 0 0 0 0 0.25 0"/>
<feBlend mode="normal" in2="effect1_backgroundBlur_1529_752" result="effect2_dropShadow_1529_752"/>
<feBlend mode="normal" in="SourceGraphic" in2="effect2_dropShadow_1529_752" result="shape"/>
</filter>
<linearGradient id="paint0_linear_1529_752" x1="131.298" y1="11.2531" x2="53.2827" y2="84.1357" gradientUnits="userSpaceOnUse">
<stop stop-color="#FAFF00" stop-opacity="0.99"/>
<stop offset="1" stop-color="#FFC700" stop-opacity="0.51"/>
</linearGradient>
<linearGradient id="paint1_linear_1529_752" x1="134.56" y1="8.80653" x2="55.4509" y2="75.6929" gradientUnits="userSpaceOnUse">
<stop stop-color="#FBFF42" stop-opacity="0.21"/>
<stop offset="1" stop-color="white" stop-opacity="0.5"/>
</linearGradient>
<linearGradient id="paint2_linear_1529_752" x1="87.0014" y1="41.6956" x2="-12.5294" y2="100.38" gradientUnits="userSpaceOnUse">
<stop stop-color="#35C2FF" stop-opacity="0.25"/>
<stop offset="0.984375" stop-color="#67D1FF"/>
</linearGradient>
<linearGradient id="paint3_linear_1529_752" x1="14.541" y1="99.0315" x2="102.924" y2="35.2383" gradientUnits="userSpaceOnUse">
<stop stop-color="#35C2FF" stop-opacity="0.18"/>
<stop offset="1" stop-color="white" stop-opacity="0.5"/>
</linearGradient>
</defs>
</svg>
