<svg width="113" height="106" viewBox="0 0 113 106" fill="none" xmlns="http://www.w3.org/2000/svg">
<g filter="url(#filter0_bd_1531_755)">
<mask id="path-1-inside-1_1531_755" fill="white">
<path d="M56.015 74.855C49.1174 74.855 42.5023 72.2964 37.6249 67.7421C32.7476 63.1878 30.0075 57.0108 30.0075 50.57C30.0075 44.1292 32.7476 37.9522 37.6249 33.3979C42.5023 28.8436 49.1174 26.285 56.015 26.285C62.9126 26.285 69.5277 28.8436 74.4051 33.3979C79.2824 37.9522 82.0225 44.1292 82.0225 50.57C82.0225 57.0108 79.2824 63.1878 74.4051 67.7421C69.5277 72.2964 62.9126 74.855 56.015 74.855ZM56.015 2C57.3945 2 58.7175 2.51172 59.693 3.42258C60.6685 4.33345 61.2165 5.56884 61.2165 6.857V16.571C61.2165 17.8592 60.6685 19.0946 59.693 20.0054C58.7175 20.9163 57.3945 21.428 56.015 21.428C54.6355 21.428 53.3125 20.9163 52.337 20.0054C51.3615 19.0946 50.8135 17.8592 50.8135 16.571V6.857C50.8135 5.56884 51.3615 4.33345 52.337 3.42258C53.3125 2.51172 54.6355 2 56.015 2ZM56.015 79.712C57.3945 79.712 58.7175 80.2237 59.693 81.1346C60.6685 82.0454 61.2165 83.2808 61.2165 84.569V94.283C61.2165 95.5712 60.6685 96.8065 59.693 97.7174C58.7175 98.6283 57.3945 99.14 56.015 99.14C54.6355 99.14 53.3125 98.6283 52.337 97.7174C51.3615 96.8065 50.8135 95.5712 50.8135 94.283V84.569C50.8135 83.2808 51.3615 82.0454 52.337 81.1346C53.3125 80.2237 54.6355 79.712 56.015 79.712ZM9.2015 45.713H19.6045C20.984 45.713 22.307 46.2247 23.2825 47.1356C24.258 48.0464 24.806 49.2818 24.806 50.57C24.806 51.8582 24.258 53.0936 23.2825 54.0044C22.307 54.9153 20.984 55.427 19.6045 55.427H9.2015C7.82198 55.427 6.49895 54.9153 5.52348 54.0044C4.54801 53.0936 4 51.8582 4 50.57C4 49.2818 4.54801 48.0464 5.52348 47.1356C6.49895 46.2247 7.82198 45.713 9.2015 45.713ZM92.4255 45.713H102.828C104.208 45.713 105.531 46.2247 106.507 47.1356C107.482 48.0464 108.03 49.2818 108.03 50.57C108.03 51.8582 107.482 53.0936 106.507 54.0044C105.531 54.9153 104.208 55.427 102.828 55.427H92.4255C91.046 55.427 89.7229 54.9153 88.7475 54.0044C87.772 53.0936 87.224 51.8582 87.224 50.57C87.224 49.2818 87.772 48.0464 88.7475 47.1356C89.7229 46.2247 91.046 45.713 92.4255 45.713ZM92.7948 16.2262C93.7699 17.137 94.3177 18.3722 94.3177 19.6601C94.3177 20.948 93.7699 22.1831 92.7948 23.094L85.4399 29.9618C84.9601 30.4256 84.3861 30.7957 83.7515 31.0502C83.1169 31.3048 82.4344 31.4387 81.7437 31.4444C81.0531 31.45 80.3681 31.3271 79.7289 31.0828C79.0896 30.8386 78.5089 30.478 78.0205 30.0219C77.5321 29.5659 77.1459 29.0236 76.8843 28.4267C76.6228 27.8298 76.4912 27.1902 76.4972 26.5453C76.5032 25.9004 76.6467 25.2631 76.9193 24.6705C77.1919 24.0779 77.5882 23.542 78.085 23.094L85.4399 16.2262C86.4153 15.3156 87.7381 14.8041 89.1173 14.8041C90.4966 14.8041 91.8194 15.3156 92.7948 16.2262ZM33.945 71.1782C34.9202 72.0891 35.468 73.3243 35.468 74.6122C35.468 75.9001 34.9202 77.1352 33.945 78.0461L26.5901 84.9138C26.1103 85.3777 25.5363 85.7477 24.9017 86.0023C24.2671 86.2569 23.5846 86.3908 22.8939 86.3964C22.2033 86.402 21.5184 86.2792 20.8791 86.0349C20.2399 85.7907 19.6591 85.4301 19.1707 84.974C18.6823 84.518 18.2961 83.9757 18.0346 83.3788C17.773 82.7819 17.6414 82.1423 17.6474 81.4974C17.6534 80.8525 17.7969 80.2152 18.0695 79.6226C18.3421 79.03 18.7384 78.4941 19.2352 78.0461L26.5901 71.1782C27.5655 70.2677 28.8883 69.7562 30.2676 69.7562C31.6468 69.7562 32.9696 70.2677 33.945 71.1782ZM26.5901 16.2262L33.945 23.094C34.8925 24.01 35.4168 25.2369 35.405 26.5104C35.3931 27.7839 34.8461 29.0021 33.8817 29.9026C32.9173 30.8031 31.6127 31.3139 30.2489 31.325C28.885 31.336 27.5711 30.8465 26.5901 29.9618L19.2404 23.094C18.2929 22.1779 17.7686 20.951 17.7805 19.6775C17.7923 18.404 18.3394 17.1858 19.3038 16.2853C20.2682 15.3848 21.5728 14.874 22.9366 14.8629C24.3004 14.8519 25.6143 15.3414 26.5953 16.2262H26.5901ZM85.4399 71.1782L92.7948 78.0461C93.7423 78.9621 94.2666 80.189 94.2547 81.4625C94.2429 82.736 93.6958 83.9542 92.7314 84.8547C91.767 85.7552 90.4624 86.266 89.0986 86.2771C87.7348 86.2881 86.4209 85.7986 85.4399 84.9138L78.085 78.0461C77.5882 77.598 77.1919 77.0621 76.9193 76.4695C76.6467 75.8769 76.5032 75.2396 76.4972 74.5947C76.4912 73.9498 76.6228 73.3102 76.8843 72.7133C77.1459 72.1164 77.5321 71.5741 78.0205 71.118C78.5089 70.662 79.0896 70.3014 79.7289 70.0572C80.3681 69.8129 81.0531 69.69 81.7437 69.6956C82.4344 69.7013 83.1169 69.8352 83.7515 70.0898C84.3861 70.3443 84.9601 70.7144 85.4399 71.1782Z"/>
</mask>
<path d="M56.015 74.855C49.1174 74.855 42.5023 72.2964 37.6249 67.7421C32.7476 63.1878 30.0075 57.0108 30.0075 50.57C30.0075 44.1292 32.7476 37.9522 37.6249 33.3979C42.5023 28.8436 49.1174 26.285 56.015 26.285C62.9126 26.285 69.5277 28.8436 74.4051 33.3979C79.2824 37.9522 82.0225 44.1292 82.0225 50.57C82.0225 57.0108 79.2824 63.1878 74.4051 67.7421C69.5277 72.2964 62.9126 74.855 56.015 74.855ZM56.015 2C57.3945 2 58.7175 2.51172 59.693 3.42258C60.6685 4.33345 61.2165 5.56884 61.2165 6.857V16.571C61.2165 17.8592 60.6685 19.0946 59.693 20.0054C58.7175 20.9163 57.3945 21.428 56.015 21.428C54.6355 21.428 53.3125 20.9163 52.337 20.0054C51.3615 19.0946 50.8135 17.8592 50.8135 16.571V6.857C50.8135 5.56884 51.3615 4.33345 52.337 3.42258C53.3125 2.51172 54.6355 2 56.015 2ZM56.015 79.712C57.3945 79.712 58.7175 80.2237 59.693 81.1346C60.6685 82.0454 61.2165 83.2808 61.2165 84.569V94.283C61.2165 95.5712 60.6685 96.8065 59.693 97.7174C58.7175 98.6283 57.3945 99.14 56.015 99.14C54.6355 99.14 53.3125 98.6283 52.337 97.7174C51.3615 96.8065 50.8135 95.5712 50.8135 94.283V84.569C50.8135 83.2808 51.3615 82.0454 52.337 81.1346C53.3125 80.2237 54.6355 79.712 56.015 79.712ZM9.2015 45.713H19.6045C20.984 45.713 22.307 46.2247 23.2825 47.1356C24.258 48.0464 24.806 49.2818 24.806 50.57C24.806 51.8582 24.258 53.0936 23.2825 54.0044C22.307 54.9153 20.984 55.427 19.6045 55.427H9.2015C7.82198 55.427 6.49895 54.9153 5.52348 54.0044C4.54801 53.0936 4 51.8582 4 50.57C4 49.2818 4.54801 48.0464 5.52348 47.1356C6.49895 46.2247 7.82198 45.713 9.2015 45.713ZM92.4255 45.713H102.828C104.208 45.713 105.531 46.2247 106.507 47.1356C107.482 48.0464 108.03 49.2818 108.03 50.57C108.03 51.8582 107.482 53.0936 106.507 54.0044C105.531 54.9153 104.208 55.427 102.828 55.427H92.4255C91.046 55.427 89.7229 54.9153 88.7475 54.0044C87.772 53.0936 87.224 51.8582 87.224 50.57C87.224 49.2818 87.772 48.0464 88.7475 47.1356C89.7229 46.2247 91.046 45.713 92.4255 45.713ZM92.7948 16.2262C93.7699 17.137 94.3177 18.3722 94.3177 19.6601C94.3177 20.948 93.7699 22.1831 92.7948 23.094L85.4399 29.9618C84.9601 30.4256 84.3861 30.7957 83.7515 31.0502C83.1169 31.3048 82.4344 31.4387 81.7437 31.4444C81.0531 31.45 80.3681 31.3271 79.7289 31.0828C79.0896 30.8386 78.5089 30.478 78.0205 30.0219C77.5321 29.5659 77.1459 29.0236 76.8843 28.4267C76.6228 27.8298 76.4912 27.1902 76.4972 26.5453C76.5032 25.9004 76.6467 25.2631 76.9193 24.6705C77.1919 24.0779 77.5882 23.542 78.085 23.094L85.4399 16.2262C86.4153 15.3156 87.7381 14.8041 89.1173 14.8041C90.4966 14.8041 91.8194 15.3156 92.7948 16.2262ZM33.945 71.1782C34.9202 72.0891 35.468 73.3243 35.468 74.6122C35.468 75.9001 34.9202 77.1352 33.945 78.0461L26.5901 84.9138C26.1103 85.3777 25.5363 85.7477 24.9017 86.0023C24.2671 86.2569 23.5846 86.3908 22.8939 86.3964C22.2033 86.402 21.5184 86.2792 20.8791 86.0349C20.2399 85.7907 19.6591 85.4301 19.1707 84.974C18.6823 84.518 18.2961 83.9757 18.0346 83.3788C17.773 82.7819 17.6414 82.1423 17.6474 81.4974C17.6534 80.8525 17.7969 80.2152 18.0695 79.6226C18.3421 79.03 18.7384 78.4941 19.2352 78.0461L26.5901 71.1782C27.5655 70.2677 28.8883 69.7562 30.2676 69.7562C31.6468 69.7562 32.9696 70.2677 33.945 71.1782ZM26.5901 16.2262L33.945 23.094C34.8925 24.01 35.4168 25.2369 35.405 26.5104C35.3931 27.7839 34.8461 29.0021 33.8817 29.9026C32.9173 30.8031 31.6127 31.3139 30.2489 31.325C28.885 31.336 27.5711 30.8465 26.5901 29.9618L19.2404 23.094C18.2929 22.1779 17.7686 20.951 17.7805 19.6775C17.7923 18.404 18.3394 17.1858 19.3038 16.2853C20.2682 15.3848 21.5728 14.874 22.9366 14.8629C24.3004 14.8519 25.6143 15.3414 26.5953 16.2262H26.5901ZM85.4399 71.1782L92.7948 78.0461C93.7423 78.9621 94.2666 80.189 94.2547 81.4625C94.2429 82.736 93.6958 83.9542 92.7314 84.8547C91.767 85.7552 90.4624 86.266 89.0986 86.2771C87.7348 86.2881 86.4209 85.7986 85.4399 84.9138L78.085 78.0461C77.5882 77.598 77.1919 77.0621 76.9193 76.4695C76.6467 75.8769 76.5032 75.2396 76.4972 74.5947C76.4912 73.9498 76.6228 73.3102 76.8843 72.7133C77.1459 72.1164 77.5321 71.5741 78.0205 71.118C78.5089 70.662 79.0896 70.3014 79.7289 70.0572C80.3681 69.8129 81.0531 69.69 81.7437 69.6956C82.4344 69.7013 83.1169 69.8352 83.7515 70.0898C84.3861 70.3443 84.9601 70.7144 85.4399 71.1782Z" fill="url(#paint0_linear_1531_755)" shape-rendering="crispEdges"/>
<path d="M56.015 74.855C49.1174 74.855 42.5023 72.2964 37.6249 67.7421C32.7476 63.1878 30.0075 57.0108 30.0075 50.57C30.0075 44.1292 32.7476 37.9522 37.6249 33.3979C42.5023 28.8436 49.1174 26.285 56.015 26.285C62.9126 26.285 69.5277 28.8436 74.4051 33.3979C79.2824 37.9522 82.0225 44.1292 82.0225 50.57C82.0225 57.0108 79.2824 63.1878 74.4051 67.7421C69.5277 72.2964 62.9126 74.855 56.015 74.855ZM56.015 2C57.3945 2 58.7175 2.51172 59.693 3.42258C60.6685 4.33345 61.2165 5.56884 61.2165 6.857V16.571C61.2165 17.8592 60.6685 19.0946 59.693 20.0054C58.7175 20.9163 57.3945 21.428 56.015 21.428C54.6355 21.428 53.3125 20.9163 52.337 20.0054C51.3615 19.0946 50.8135 17.8592 50.8135 16.571V6.857C50.8135 5.56884 51.3615 4.33345 52.337 3.42258C53.3125 2.51172 54.6355 2 56.015 2ZM56.015 79.712C57.3945 79.712 58.7175 80.2237 59.693 81.1346C60.6685 82.0454 61.2165 83.2808 61.2165 84.569V94.283C61.2165 95.5712 60.6685 96.8065 59.693 97.7174C58.7175 98.6283 57.3945 99.14 56.015 99.14C54.6355 99.14 53.3125 98.6283 52.337 97.7174C51.3615 96.8065 50.8135 95.5712 50.8135 94.283V84.569C50.8135 83.2808 51.3615 82.0454 52.337 81.1346C53.3125 80.2237 54.6355 79.712 56.015 79.712ZM9.2015 45.713H19.6045C20.984 45.713 22.307 46.2247 23.2825 47.1356C24.258 48.0464 24.806 49.2818 24.806 50.57C24.806 51.8582 24.258 53.0936 23.2825 54.0044C22.307 54.9153 20.984 55.427 19.6045 55.427H9.2015C7.82198 55.427 6.49895 54.9153 5.52348 54.0044C4.54801 53.0936 4 51.8582 4 50.57C4 49.2818 4.54801 48.0464 5.52348 47.1356C6.49895 46.2247 7.82198 45.713 9.2015 45.713ZM92.4255 45.713H102.828C104.208 45.713 105.531 46.2247 106.507 47.1356C107.482 48.0464 108.03 49.2818 108.03 50.57C108.03 51.8582 107.482 53.0936 106.507 54.0044C105.531 54.9153 104.208 55.427 102.828 55.427H92.4255C91.046 55.427 89.7229 54.9153 88.7475 54.0044C87.772 53.0936 87.224 51.8582 87.224 50.57C87.224 49.2818 87.772 48.0464 88.7475 47.1356C89.7229 46.2247 91.046 45.713 92.4255 45.713ZM92.7948 16.2262C93.7699 17.137 94.3177 18.3722 94.3177 19.6601C94.3177 20.948 93.7699 22.1831 92.7948 23.094L85.4399 29.9618C84.9601 30.4256 84.3861 30.7957 83.7515 31.0502C83.1169 31.3048 82.4344 31.4387 81.7437 31.4444C81.0531 31.45 80.3681 31.3271 79.7289 31.0828C79.0896 30.8386 78.5089 30.478 78.0205 30.0219C77.5321 29.5659 77.1459 29.0236 76.8843 28.4267C76.6228 27.8298 76.4912 27.1902 76.4972 26.5453C76.5032 25.9004 76.6467 25.2631 76.9193 24.6705C77.1919 24.0779 77.5882 23.542 78.085 23.094L85.4399 16.2262C86.4153 15.3156 87.7381 14.8041 89.1173 14.8041C90.4966 14.8041 91.8194 15.3156 92.7948 16.2262ZM33.945 71.1782C34.9202 72.0891 35.468 73.3243 35.468 74.6122C35.468 75.9001 34.9202 77.1352 33.945 78.0461L26.5901 84.9138C26.1103 85.3777 25.5363 85.7477 24.9017 86.0023C24.2671 86.2569 23.5846 86.3908 22.8939 86.3964C22.2033 86.402 21.5184 86.2792 20.8791 86.0349C20.2399 85.7907 19.6591 85.4301 19.1707 84.974C18.6823 84.518 18.2961 83.9757 18.0346 83.3788C17.773 82.7819 17.6414 82.1423 17.6474 81.4974C17.6534 80.8525 17.7969 80.2152 18.0695 79.6226C18.3421 79.03 18.7384 78.4941 19.2352 78.0461L26.5901 71.1782C27.5655 70.2677 28.8883 69.7562 30.2676 69.7562C31.6468 69.7562 32.9696 70.2677 33.945 71.1782ZM26.5901 16.2262L33.945 23.094C34.8925 24.01 35.4168 25.2369 35.405 26.5104C35.3931 27.7839 34.8461 29.0021 33.8817 29.9026C32.9173 30.8031 31.6127 31.3139 30.2489 31.325C28.885 31.336 27.5711 30.8465 26.5901 29.9618L19.2404 23.094C18.2929 22.1779 17.7686 20.951 17.7805 19.6775C17.7923 18.404 18.3394 17.1858 19.3038 16.2853C20.2682 15.3848 21.5728 14.874 22.9366 14.8629C24.3004 14.8519 25.6143 15.3414 26.5953 16.2262H26.5901ZM85.4399 71.1782L92.7948 78.0461C93.7423 78.9621 94.2666 80.189 94.2547 81.4625C94.2429 82.736 93.6958 83.9542 92.7314 84.8547C91.767 85.7552 90.4624 86.266 89.0986 86.2771C87.7348 86.2881 86.4209 85.7986 85.4399 84.9138L78.085 78.0461C77.5882 77.598 77.1919 77.0621 76.9193 76.4695C76.6467 75.8769 76.5032 75.2396 76.4972 74.5947C76.4912 73.9498 76.6228 73.3102 76.8843 72.7133C77.1459 72.1164 77.5321 71.5741 78.0205 71.118C78.5089 70.662 79.0896 70.3014 79.7289 70.0572C80.3681 69.8129 81.0531 69.69 81.7437 69.6956C82.4344 69.7013 83.1169 69.8352 83.7515 70.0898C84.3861 70.3443 84.9601 70.7144 85.4399 71.1782Z" stroke="url(#paint1_linear_1531_755)" stroke-width="2" shape-rendering="crispEdges" mask="url(#path-1-inside-1_1531_755)"/>
</g>
<defs>
<filter id="filter0_bd_1531_755" x="-21" y="-23" width="154.03" height="147.14" filterUnits="userSpaceOnUse" color-interpolation-filters="sRGB">
<feFlood flood-opacity="0" result="BackgroundImageFix"/>
<feGaussianBlur in="BackgroundImageFix" stdDeviation="12.5"/>
<feComposite in2="SourceAlpha" operator="in" result="effect1_backgroundBlur_1531_755"/>
<feColorMatrix in="SourceAlpha" type="matrix" values="0 0 0 0 0 0 0 0 0 0 0 0 0 0 0 0 0 0 127 0" result="hardAlpha"/>
<feOffset dy="2"/>
<feGaussianBlur stdDeviation="2"/>
<feComposite in2="hardAlpha" operator="out"/>
<feColorMatrix type="matrix" values="0 0 0 0 0 0 0 0 0 0 0 0 0 0 0 0 0 0 0.25 0"/>
<feBlend mode="normal" in2="effect1_backgroundBlur_1531_755" result="effect2_dropShadow_1531_755"/>
<feBlend mode="normal" in="SourceGraphic" in2="effect2_dropShadow_1531_755" result="shape"/>
</filter>
<linearGradient id="paint0_linear_1531_755" x1="99.5275" y1="12.1766" x2="10.8272" y2="101.758" gradientUnits="userSpaceOnUse">
<stop stop-color="#FAFF00" stop-opacity="0.99"/>
<stop offset="1" stop-color="#FFC700" stop-opacity="0.51"/>
</linearGradient>
<linearGradient id="paint1_linear_1531_755" x1="103.529" y1="9.40114" x2="12.8871" y2="92.2499" gradientUnits="userSpaceOnUse">
<stop stop-color="#FBFF42" stop-opacity="0.21"/>
<stop offset="1" stop-color="white" stop-opacity="0.5"/>
</linearGradient>
</defs>
</svg>
