<svg width="13" height="16" viewBox="0 0 13 16" fill="none" xmlns="http://www.w3.org/2000/svg">
<path d="M3.87212 13.1024C1.77627 13.1024 0.0772491 11.3768 0.0772491 9.24821C0.0772491 7.11961 3.87212 0.769043 3.87212 0.769043C3.87212 0.769043 7.66699 7.11961 7.66699 9.24821C7.66699 11.3768 5.96797 13.1024 3.87212 13.1024Z" fill="white"/>
<path d="M10.5127 12.1537C9.4648 12.1537 8.61528 11.2246 8.61528 10.0784C8.61528 8.93223 10.5127 5.5127 10.5127 5.5127C10.5127 5.5127 12.4102 8.93223 12.4102 10.0784C12.4102 11.2246 11.5606 12.1537 10.5127 12.1537Z" fill="white"/>
<path d="M8.14138 15.9487C7.35543 15.9487 6.7183 15.285 6.7183 14.4663C6.7183 13.6476 8.14138 11.2051 8.14138 11.2051C8.14138 11.2051 9.56445 13.6476 9.56445 14.4663C9.56445 15.285 8.92732 15.9487 8.14138 15.9487Z" fill="white"/>
</svg>
