<svg width="24" height="22" viewBox="0 0 24 22" fill="none" xmlns="http://www.w3.org/2000/svg">
<path d="M14.2861 3.8877H9.37674L6.92206 6.59409H3.97644C3.45562 6.59409 2.95614 6.78418 2.58786 7.12255C2.21959 7.46091 2.0127 7.91983 2.0127 8.39835V16.5175C2.0127 16.9961 2.21959 17.455 2.58786 17.7933C2.95614 18.1317 3.45562 18.3218 3.97644 18.3218H19.6864C20.2072 18.3218 20.7067 18.1317 21.075 17.7933C21.4433 17.455 21.6502 16.9961 21.6502 16.5175V8.39835C21.6502 7.91983 21.4433 7.46091 21.075 7.12255C20.7067 6.78418 20.2072 6.59409 19.6864 6.59409H16.7408L14.2861 3.8877Z" stroke="#1A6158" stroke-width="2" stroke-linecap="round" stroke-linejoin="round"/>
<path d="M11.8316 15.2621C13.6582 15.2621 15.2863 13.8827 15.2863 12.0068C15.2863 10.1309 13.6582 8.75146 11.8316 8.75146C10.0051 8.75146 8.37695 10.1309 8.37695 12.0068C8.37695 13.8827 10.0051 15.2621 11.8316 15.2621Z" stroke="#1A6158" stroke-width="2" stroke-linecap="round" stroke-linejoin="round"/>
</svg>
