<svg width="24" height="22" viewBox="0 0 24 22" fill="none" xmlns="http://www.w3.org/2000/svg">
<path d="M14.2856 3.8877H9.37626L6.92157 6.59409H3.97595C3.45514 6.59409 2.95565 6.78418 2.58737 7.12255C2.2191 7.46091 2.01221 7.91983 2.01221 8.39835V16.5175C2.01221 16.9961 2.2191 17.455 2.58737 17.7933C2.95565 18.1317 3.45514 18.3218 3.97595 18.3218H19.6859C20.2067 18.3218 20.7062 18.1317 21.0745 17.7933C21.4428 17.455 21.6497 16.9961 21.6497 16.5175V8.39835C21.6497 7.91983 21.4428 7.46091 21.0745 7.12255C20.7062 6.78418 20.2067 6.59409 19.6859 6.59409H16.7403L14.2856 3.8877Z" stroke="#1A6158" stroke-opacity="1" stroke-width="2" stroke-linecap="round" stroke-linejoin="round"/>
<path d="M11.8307 15.2626C13.6572 15.2626 15.2853 13.8832 15.2853 12.0073C15.2853 10.1314 13.6572 8.75195 11.8307 8.75195C10.0041 8.75195 8.37598 10.1314 8.37598 12.0073C8.37598 13.8832 10.0041 15.2626 11.8307 15.2626Z" stroke="#1A6158" stroke-opacity="1" stroke-width="2" stroke-linecap="round" stroke-linejoin="round"/>
</svg>
