<svg width="35" height="32" viewBox="0 0 35 32" fill="none" xmlns="http://www.w3.org/2000/svg">
<path d="M21.1457 5.33301H13.854L10.2082 9.33301H5.83317C5.05962 9.33301 4.31776 9.61396 3.77078 10.1141C3.22379 10.6142 2.9165 11.2924 2.9165 11.9997V23.9997C2.9165 24.7069 3.22379 25.3852 3.77078 25.8853C4.31776 26.3854 5.05962 26.6663 5.83317 26.6663H29.1665C29.9401 26.6663 30.6819 26.3854 31.2289 25.8853C31.7759 25.3852 32.0832 24.7069 32.0832 23.9997V11.9997C32.0832 11.2924 31.7759 10.6142 31.2289 10.1141C30.6819 9.61396 29.9401 9.33301 29.1665 9.33301H24.7915L21.1457 5.33301Z" stroke="white" stroke-width="2" stroke-linecap="round" stroke-linejoin="round"/>
<path d="M17.4998 21.6667C19.9794 21.6667 22.1457 19.809 22.1457 17.3333C22.1457 14.8576 19.9794 13 17.4998 13C15.0202 13 12.854 14.8576 12.854 17.3333C12.854 19.809 15.0202 21.6667 17.4998 21.6667Z" stroke="white" stroke-width="2" stroke-linecap="round" stroke-linejoin="round"/>
</svg>
