<svg width="32" height="24" viewBox="0 0 32 24" fill="none" xmlns="http://www.w3.org/2000/svg">
<path d="M16.1001 1.02547C17.8209 2.88262 18.7868 5.39956 18.7856 8.02327C18.7843 10.647 17.816 13.1628 16.0934 15.0181V15.0181C14.3725 13.1609 13.4066 10.644 13.4079 8.02028C13.4092 5.39657 14.3775 2.88071 16.1001 1.02547V1.02547Z" stroke="#47B88A" stroke-width="1.75" stroke-miterlimit="10"/>
<path d="M1.34792 9.92212C3.70678 9.25943 6.21345 9.63308 8.3165 10.9609C10.4196 12.2887 11.9467 14.4618 12.562 17.0023V17.0023C10.2032 17.665 7.69651 17.2913 5.59345 15.9635C3.4904 14.6358 1.96324 12.4626 1.34792 9.92212V9.92212Z" stroke="#47B88A" stroke-width="1.75" stroke-miterlimit="10"/>
<path d="M19.5898 17.002C20.2052 14.4615 21.7323 12.2883 23.8354 10.9605C25.9384 9.63273 28.4451 9.25908 30.8039 9.92177C30.1886 12.4622 28.6615 14.6354 26.5584 15.9632C24.4554 17.291 21.9487 17.6646 19.5898 17.002V17.002Z" stroke="#47B88A" stroke-width="1.75" stroke-miterlimit="10"/>
<path d="M16.0757 14.6836V22.3437" stroke="#47B88A" stroke-width="1.75" stroke-miterlimit="10"/>
<path d="M12.5527 17.0273L16.0758 19.5986L19.6012 17.0273" stroke="#47B88A" stroke-width="1.75" stroke-miterlimit="10"/>
<path d="M4.29492 22.9717H28.0031" stroke="#47B88A" stroke-width="1.75" stroke-miterlimit="10"/>
</svg>
