R<svg width="168" height="40" viewBox="0 0 168 40" fill="none" xmlns="http://www.w3.org/2000/svg">
<path d="M47 0.553333C26.8651 -2.89403 21.0897 10.6081 20.7189 17.7901C27.1821 6.69681 38.8854 3.6215 41.2921 2.93896C41.5125 2.82175 41.6597 2.76338 41.716 2.77744C41.7844 2.79454 41.6297 2.84321 41.2921 2.93896C39.7692 3.74883 34.7532 7.36783 32.1213 9.31075C21.3308 16.4883 19.5602 30.0942 20.0237 36H23.6391C23.0828 25.9915 25.0759 22.192 26.142 21.5433C35.0414 22.0993 38.9349 15.288 40.7426 10.1448C42.1888 6.03019 45.5168 2.03607 47 0.553333Z" fill="white"/>
<path d="M19.7456 17.7901C19.143 12.6469 14.3503 3.50028 0 8.05969C1.01972 8.52304 3.55976 10.4784 5.56213 14.593C6.76726 17.4195 11.0408 22.5164 18.4941 20.2923C15.7594 17.0951 9.56687 10.4784 6.67456 9.58876C9.31657 9.91311 15.6296 12.0075 19.7456 17.7901Z" fill="white"/>
<path d="M51.224 33V10.248C52.9947 10.0773 54.712 9.992 56.376 9.992C58.616 9.992 60.408 10.5147 61.752 11.56C63.1173 12.6053 63.8 14.184 63.8 16.296C63.8 18.3867 62.872 20.1147 61.016 21.48C59.1813 22.824 56.984 23.496 54.424 23.496C54.3173 23.496 54.2 23.496 54.072 23.496V22.44C54.1573 22.44 54.232 22.44 54.296 22.44C56.408 22.44 58.2427 21.8853 59.8 20.776C61.3573 19.6667 62.136 18.2267 62.136 16.456C62.136 14.664 61.592 13.3733 60.504 12.584C59.416 11.7733 57.9547 11.368 56.12 11.368C55.16 11.368 54.04 11.4107 52.76 11.496V33H51.224ZM69.4338 33V12.232H70.9058V31.656H80.4418V33H69.4338ZM85.8328 25.8L82.8568 33H81.3528L90.0568 12.104H90.9208L99.6888 33H98.0568L95.0488 25.8H85.8328ZM90.4088 14.472C90.0888 15.432 89.8008 16.232 89.5448 16.872L86.3448 24.552H94.5368L91.3688 16.904C90.8781 15.7093 90.5581 14.8987 90.4088 14.472ZM103.903 33V12.104H104.607L118.239 27.784C118.729 28.3387 119.177 28.8933 119.583 29.448C120.009 29.9813 120.233 30.2587 120.255 30.28C120.212 29.768 120.191 28.7653 120.191 27.272V12.232H121.663V33.128H120.959L107.071 17.192L105.311 15.048C105.353 15.4747 105.375 16.4773 105.375 18.056V33H103.903ZM133.052 13.544H126.012V12.232H141.532V13.544H134.492V33H133.052V13.544ZM145.871 33V12.232H147.343V33H145.871ZM155.028 33V12.232H164.724V13.512H156.5V21.064H163.924V22.312H156.5V31.656H165.044V33H155.028Z" fill="white"/>
</svg>
