<svg width="335" height="335" viewBox="0 0 335 335" fill="none" xmlns="http://www.w3.org/2000/svg">
<rect width="335" height="335" rx="13" fill="#47B88A"/>
<path d="M278 85.613C182.895 69.3338 155.615 133.094 153.864 167.009C184.392 114.624 239.671 100.102 251.039 96.8784C252.08 96.3249 252.776 96.0493 253.041 96.1157C253.365 96.1965 252.634 96.4262 251.039 96.8784C243.846 100.703 220.154 117.793 207.722 126.967C156.754 160.861 148.391 225.112 150.58 253H167.657C165.03 205.738 174.444 187.796 179.479 184.732C221.515 187.358 239.905 155.193 248.444 130.906C255.275 111.476 270.994 92.6148 278 85.613Z" fill="white"/>
<path d="M149.266 167.009C146.42 142.721 123.782 99.5291 56 121.06C60.8166 123.248 72.8142 132.481 82.2722 151.911C87.9645 165.259 108.15 189.327 143.355 178.825C130.438 163.727 101.188 132.481 87.5266 128.28C100.006 129.812 129.825 139.702 149.266 167.009Z" fill="white"/>
</svg>
