<svg width="27" height="24" viewBox="0 0 27 24" fill="none" xmlns="http://www.w3.org/2000/svg">
<path d="M13.6404 23.0862C20.1477 23.0862 25.4229 18.1733 25.4229 12.1129C25.4229 6.05256 20.1477 1.13965 13.6404 1.13965C7.1331 1.13965 1.85791 6.05256 1.85791 12.1129C1.85791 18.1733 7.1331 23.0862 13.6404 23.0862Z" stroke="#1A6158" stroke-opacity="0.5" stroke-width="1.75" stroke-miterlimit="10"/>
<path d="M13.6404 11.6743C15.4624 11.6743 16.9395 10.2987 16.9395 8.60182C16.9395 6.90491 15.4624 5.5293 13.6404 5.5293C11.8184 5.5293 10.3413 6.90491 10.3413 8.60182C10.3413 10.2987 11.8184 11.6743 13.6404 11.6743Z" stroke="#1A6158" stroke-opacity="0.5" stroke-width="1.75" stroke-miterlimit="10"/>
<path d="M5.47021 20.4525L8.09771 16.783C8.9272 15.6242 10.1431 14.9658 11.4298 14.9658H16.1546C17.5378 14.9658 18.8363 15.7318 19.6516 17.0288L21.8102 20.4525" stroke="#1A6158" stroke-opacity="0.5" stroke-width="1.75" stroke-miterlimit="10"/>
</svg>
