<svg width="27" height="24" viewBox="0 0 27 24" fill="none" xmlns="http://www.w3.org/2000/svg">
<path d="M13.6409 23.0862C20.1482 23.0862 25.4234 18.1733 25.4234 12.1129C25.4234 6.05256 20.1482 1.13965 13.6409 1.13965C7.13359 1.13965 1.8584 6.05256 1.8584 12.1129C1.8584 18.1733 7.13359 23.0862 13.6409 23.0862Z" stroke="#1A6158" stroke-width="2" stroke-miterlimit="10"/>
<path d="M13.6409 11.6739C15.4629 11.6739 16.94 10.2982 16.94 8.60133C16.94 6.90442 15.4629 5.52881 13.6409 5.52881C11.8188 5.52881 10.3418 6.90442 10.3418 8.60133C10.3418 10.2982 11.8188 11.6739 13.6409 11.6739Z" stroke="#1A6158" stroke-width="2" stroke-miterlimit="10"/>
<path d="M5.4707 20.4525L8.0982 16.783C8.92768 15.6242 10.1436 14.9658 11.4303 14.9658H16.1551C17.5383 14.9658 18.8368 15.7318 19.6521 17.0288L21.8107 20.4525" stroke="#1A6158" stroke-width="1.75" stroke-miterlimit="10"/>
</svg>
